<?xml version="1.0" encoding="UTF-8" standalone="no"?>
<!-- Created with Inkscape (http://www.inkscape.org/) -->

<svg
   xmlns:dc="http://purl.org/dc/elements/1.1/"
   xmlns:cc="http://creativecommons.org/ns#"
   xmlns:rdf="http://www.w3.org/1999/02/22-rdf-syntax-ns#"
   xmlns:svg="http://www.w3.org/2000/svg"
   xmlns="http://www.w3.org/2000/svg"
   xmlns:sodipodi="http://sodipodi.sourceforge.net/DTD/sodipodi-0.dtd"
   xmlns:inkscape="http://www.inkscape.org/namespaces/inkscape"
   width="247.15396mm"
   height="54.191429mm"
   viewBox="0 0 247.15396 54.191429"
   version="1.1"
   id="svg855"
   inkscape:version="0.92.5 (2060ec1f9f, 2020-04-08)"
   sodipodi:docname="daxslab-horizontal-white.svg">
  <defs
     id="defs849" />
  <sodipodi:namedview
     id="base"
     pagecolor="#ffffff"
     bordercolor="#666666"
     borderopacity="1.0"
     inkscape:pageopacity="0.0"
     inkscape:pageshadow="2"
     inkscape:zoom="0.49497475"
     inkscape:cx="480.59309"
     inkscape:cy="472.70673"
     inkscape:document-units="mm"
     inkscape:current-layer="g17"
     showgrid="false"
     fit-margin-top="0"
     fit-margin-left="0"
     fit-margin-right="0"
     fit-margin-bottom="0"
     inkscape:window-width="1366"
     inkscape:window-height="751"
     inkscape:window-x="0"
     inkscape:window-y="17"
     inkscape:window-maximized="0" />
  <metadata
     id="metadata852">
    <rdf:RDF>
      <cc:Work
         rdf:about="">
        <dc:format>image/svg+xml</dc:format>
        <dc:type
           rdf:resource="http://purl.org/dc/dcmitype/StillImage" />
        <dc:title />
      </cc:Work>
    </rdf:RDF>
  </metadata>
  <g
     inkscape:label="Layer 1"
     inkscape:groupmode="layer"
     id="layer1"
     transform="translate(18.4996,-114.93405)">
    <g
       style="clip-rule:evenodd;fill-rule:evenodd;image-rendering:optimizeQuality;shape-rendering:geometricPrecision;text-rendering:geometricPrecision"
       id="g72"
       transform="matrix(0.01000016,0,0,0.01000016,-18.4996,114.93405)">
      <path
         style="fill:#ffffff"
         inkscape:connector-curvature="0"
         id="path7"
         d="m 24715,1930 c 0,346 -92,645 -277,896 -201,273 -460,410 -776,410 H 22054 V 0 h 692 v 673 h 925 c 307,0 561,131 762,391 188,244 282,533 282,866 z m -722,25 c 0,-195 -58,-367 -173,-517 -116,-150 -262,-225 -440,-225 h -634 v 1469 h 668 c 172,0 311,-73 418,-220 107,-147 161,-316 161,-507 z m -5378,1281 h -692 V 0 h 692 z m 2944,0 h -1851 c -207,0 -385,-70 -531,-210 -147,-140 -221,-318 -221,-532 0,-224 67,-410 200,-556 134,-147 300,-221 501,-221 h 1194 v -138 c 0,-43 -7,-80 -22,-112 -15,-31 -39,-68 -72,-111 -46,-53 -93,-86 -142,-101 -50,-15 -119,-23 -207,-23 H 19130 V 668 h 1098 213 c 240,0 420,21 539,62 119,42 221,103 307,186 109,109 181,227 217,356 37,129 55,294 55,495 z m -708,-524 v -505 h -870 c -83,0 -153,24 -211,72 -57,48 -86,111 -86,190 0,70 28,127 84,174 56,46 120,69 193,69 z m -9652,0 v -505 h -871 c -82,0 -152,24 -210,72 -58,48 -87,111 -87,190 0,70 28,127 84,174 56,46 121,69 193,69 z m 707,524 h -1850 c -208,0 -385,-70 -532,-210 -147,-140 -220,-318 -220,-532 0,-224 67,-410 200,-556 133,-147 300,-221 501,-221 h 1194 v -138 c 0,-43 -8,-80 -22,-112 -15,-31 -39,-68 -72,-111 -46,-53 -93,-86 -143,-101 -49,-15 -119,-23 -207,-23 H 9477 V 668 h 1098 213 c 241,0 421,21 539,62 119,42 221,103 307,186 109,109 182,227 218,356 36,129 54,294 54,495 z m 3008,-2572 -984,1296 955,1276 h -886 l -495,-683 -519,683 h -866 l 970,-1256 -980,-1316 h 866 l 534,737 525,-737 z M 8220,2677 V 1218 h -638 c -178,0 -325,71 -440,212 -116,142 -173,310 -173,505 0,195 53,367 158,517 106,150 247,225 426,225 z m 688,559 H 7300 c -310,0 -567,-138 -772,-415 -188,-258 -282,-559 -282,-906 0,-333 106,-623 317,-871 211,-247 475,-371 792,-371 h 885 V 0 h 668 z m 8655,-791 c 0,217 -70,404 -210,559 -140,155 -318,232 -532,232 h -1697 v -465 h 1395 c 99,0 183,-25 250,-74 68,-50 102,-120 102,-213 0,-214 -146,-321 -436,-321 h -712 c -152,0 -299,-73 -441,-218 -141,-145 -212,-302 -212,-470 0,-238 52,-429 158,-574 122,-165 302,-247 539,-247 h 1633 v 484 h -1455 c -56,0 -104,28 -146,82 -41,55 -61,116 -61,186 0,76 27,141 81,195 55,55 120,82 196,82 h 767 c 240,0 431,71 571,215 140,143 210,326 210,547 z"
         class="fil0" />
      <rect
         style="fill:#ffffff"
         id="rect11"
         height="156"
         width="18469"
         y="3693"
         x="6246"
         class="fil1" />
      <g
         transform="matrix(0.99997836,0,0,0.99997836,-6490.8595,6.5585279)"
         id="g19"
         style="clip-rule:evenodd;fill-rule:evenodd;image-rendering:optimizeQuality;shape-rendering:geometricPrecision;text-rendering:geometricPrecision">
        <polygon
           style="fill:#ffffff"
           id="polygon7"
           points="9732,4401 10916,4401 10916,3203 11635,3203 11635,5096 9732,5096 "
           class="fil0" />
        <g
           id="g17">
          <polygon
             style="fill:#ffffff"
             id="polygon9"
             points="8703,1005 7520,1005 7520,2202 6800,2202 6800,309 8703,309 "
             class="fil0" />
          <polygon
             style="fill:#ffffff"
             id="polygon13"
             points="11945,3087 10916,3087 10916,1005 8858,1005 8858,0 11945,0 "
             class="fil0" />
          <polygon
             style="fill:#ffffff"
             id="polygon15-3"
             points="6491,2319 7520,2319 7520,4401 9577,4401 9577,5406 6491,5406 "
             class="fil0" />
          <path
             style="clip-rule:evenodd;fill:#ffffff;fill-opacity:1;fill-rule:evenodd;stroke-width:8.46671104;image-rendering:optimizeQuality;shape-rendering:geometricPrecision;text-rendering:geometricPrecision"
             d="M 7674.4197,2701.1163 V 1160.1748 H 9219.5946 10764.778 V 2701.1163 4242.0579 H 9219.5946 7674.4197 Z m 939.805,986.3719 v -385.2354 h -385.236 -385.235 v 385.2354 385.2354 h 385.235 385.236 z m -660.404,0 v -275.1681 h 275.168 275.168 v 275.1681 275.1682 h -275.168 -275.168 z m 440.269,0 v -165.1009 h -165.101 -165.101 v 165.1009 165.1009 h 165.101 165.101 z m 660.4039,330.2018 v -55.0336 h -55.0339 -55.0331 v -55.0337 -55.0336 h 55.0331 55.0339 v -55.0336 -55.0337 h 55.0331 55.0339 v -55.0336 -55.0336 h -110.067 -110.067 v -55.0337 -55.0336 h 55.0331 55.0339 v -55.0336 -55.0336 h 55.0331 55.0339 v 55.0336 55.0336 h 55.034 55.033 v -220.1345 -220.1345 h 110.068 110.0669 v 55.0337 55.0335 h -55.0339 -55.033 v 55.0337 55.0336 h 55.033 55.0339 v 55.0336 55.0337 h -55.0339 -55.033 v 55.0336 55.0336 h 55.033 55.0339 v -55.0336 -55.0336 h 55.033 55.034 v 110.0672 110.0673 h 220.135 220.1425 v 110.0672 110.0673 h 55.034 55.033 v 55.0336 55.0337 h 55.034 55.034 v -55.0337 -55.0336 h 55.033 55.034 v -110.0673 -110.0672 h -55.034 -55.033 v 55.0336 55.0336 h -55.034 -55.034 v -110.0672 -110.0673 h 165.101 165.101 v 55.0336 55.0337 h 55.034 55.033 v -220.1345 -220.1346 h -55.033 -55.034 v 55.0337 55.0336 h -55.034 -55.033 v -110.0673 -110.0672 h 55.033 55.034 v -55.0336 -55.0336 h 55.034 55.033 v -165.1009 -165.1008 h -110.067 -110.067 v 55.0336 55.0336 h -55.034 -55.033 v -55.0336 -55.0336 h -55.034 -55.034 v -55.0337 -55.0336 h -55.033 -55.034 v 55.0336 55.0337 h -55.0355 -55.04 v -165.1009 -165.1009 h 110.0755 110.067 v -55.0336 -55.0337 h -165.1025 -165.107 v 110.0673 110.0672 h -55.034 -55.034 v -110.0672 -110.0673 h -55.033 -55.034 v -55.0336 -55.0336 h 55.034 55.033 v -55.0337 -55.0336 h -55.033 -55.034 v -55.0336 -55.0336 h 55.034 55.033 v -55.0337 -55.0336 h -55.033 -55.034 v -55.0336 -55.0337 h 55.034 55.033 v -55.0336 -55.0336 h -55.033 -55.034 v -110.0673 -110.0672 h -110.067 -110.0669 v 55.0336 55.0336 h -55.034 -55.034 v 55.0337 55.0336 h 55.034 55.034 v -55.0336 -55.0337 h 55.033 55.0339 v 55.0337 55.0336 h 55.033 55.034 v 55.0336 55.0336 h -55.034 -55.033 v 55.0337 55.0336 h -55.0339 -55.033 v 55.0336 55.0337 h 55.033 55.0339 v 55.0336 55.0336 h -55.0339 -55.033 v 55.0336 55.0337 h 55.033 55.0339 v 55.0336 55.0336 h -165.1009 -165.101 v -55.0336 -55.0336 h 55.034 55.033 V 1871.3786 1651.244 h -55.033 -55.034 v 220.1346 220.1345 h -55.0339 -55.0331 v -165.1009 -165.1009 h -55.0339 -55.0331 v -55.0336 -55.0337 h -55.0339 -55.034 v -55.0336 -55.0336 h 110.0679 110.067 v -110.0673 -110.0672 h -55.0339 -55.0331 v 55.0336 55.0336 h -110.0679 -110.067 v 110.0673 110.0672 h 55.034 55.033 v 55.0337 55.0336 h -55.033 -55.034 v 220.1345 220.1345 h -110.067 -110.068 v 55.0337 55.0336 h -55.033 -55.034 v 165.1009 165.1009 h -55.033 -55.034 v -55.0337 -55.0336 h -55.034 -55.033 v -55.0336 -55.0337 h 55.033 55.034 v -110.0672 -110.0673 h -55.034 -55.033 v 55.0337 55.0336 h -55.034 -55.034 v -55.0336 -55.0337 h -110.067 -110.067 v 55.0337 55.0336 h 110.067 110.067 v 110.0672 110.0673 h -55.033 -55.034 v -55.0336 -55.0337 h -55.033 -55.034 v 55.0337 55.0336 h 55.034 55.033 v 55.0336 55.0337 h 55.034 55.033 v -55.0337 -55.0336 h 55.034 55.034 v 110.0673 110.0672 h -55.034 -55.034 v 55.0336 55.0337 h 55.034 55.034 v 110.0672 110.0672 h -55.034 -55.034 v -55.0336 -55.0336 h -55.033 -55.034 v -55.0336 -55.0336 h -55.033 -55.034 v 55.0336 55.0336 h 55.034 55.033 v 55.0336 55.0336 h -55.033 -55.034 v 55.0337 55.0335 h 220.134 220.135 v -110.0672 -110.0672 h 55.034 55.033 v 110.0672 110.0672 h 165.101 165.101 v 110.0673 110.0673 h 55.034 55.033 v 110.0672 110.0673 h -55.033 -55.034 v 55.0336 55.0336 h 110.067 110.0679 v 55.0337 55.0336 h -110.0679 -110.067 v 110.0673 110.0672 h 165.101 165.1009 z m 660.4029,-660.4036 v -165.1009 h 165.101 165.1095 v 165.1009 165.1009 h -165.1095 -165.101 z m 220.135,0 v -55.0336 h -55.034 -55.033 v 55.0336 55.0337 h 55.033 55.034 z m 220.1425,0 v -55.0336 h 110.068 110.067 v 55.0336 55.0337 h -110.067 -110.068 z M 8834.3587,3247.2192 v -55.0337 h -55.033 -55.034 v -55.0335 -55.0337 h -110.067 -110.068 v -55.0336 -55.0336 h 110.068 110.067 v -110.0672 -110.0673 h -55.034 -55.033 v 55.0336 55.0337 h -55.034 -55.034 v -55.0337 -55.0336 h 55.034 55.034 v -55.0336 -55.0336 h -55.034 -55.034 v -55.0337 -55.0336 h 165.101 165.101 v -55.0336 -55.0337 h -55.033 -55.034 v -110.0672 -110.0673 h 55.034 55.033 v -165.1009 -165.1008 h 55.034 55.0339 v 165.1008 165.1009 h 55.0331 55.0339 v 165.1009 165.1009 h -110.067 -110.0679 v 55.0336 55.0337 h 55.034 55.0339 v 55.0336 55.0336 h 55.0331 55.0339 v 165.1009 165.1008 h 55.0331 55.0339 v -220.1344 -220.1345 h 55.034 55.033 v 220.1345 220.1344 h -55.033 -55.034 v 110.0672 110.0673 h -55.0339 -55.0331 v -55.0336 -55.0337 h -55.0339 -55.0331 v 55.0337 55.0336 h -55.0339 -55.034 z m 110.0679,-220.1345 v -55.0336 h -110.0679 -110.067 v 55.0336 55.0336 h 110.067 110.0679 z m 0,-660.4035 v -55.0336 h -55.0339 -55.034 v 55.0336 55.0336 h 55.034 55.0339 z m 550.3359,880.538 v -55.0337 h 55.033 55.034 v 55.0337 55.0336 h -55.034 -55.033 z m 110.067,-220.1345 v -55.0336 h -55.034 -55.033 v -55.0336 -55.0336 h -55.0339 -55.033 V 2696.883 2531.7821 h -55.034 -55.034 v -55.0336 -55.0337 h 55.034 55.034 v -55.0336 -55.0336 h 110.0669 110.067 v 110.0672 110.0673 h 55.034 55.033 v 55.0336 55.0337 h 55.034 55.034 v 55.0336 55.0336 h -55.034 -55.034 v 55.0336 55.0337 h 110.068 110.067 v 55.0336 55.0336 h 110.0755 110.067 v -55.0336 -55.0336 h -55.033 -55.034 v -110.0673 -110.0672 h 55.034 55.033 v 110.0672 110.0673 h 55.034 55.034 v 55.0336 55.0336 h 55.033 55.034 v -110.0672 -110.0673 h 55.033 55.034 v 110.0673 110.0672 h -55.034 -55.033 v 55.0336 55.0336 h -55.034 -55.033 v -55.0336 -55.0336 h -55.034 -55.034 v 55.0336 55.0336 h -110.067 -110.0755 v -55.0336 -55.0336 h -110.067 -110.068 v 55.0336 55.0336 h -55.033 -55.034 z m 110.067,-110.0672 v -55.0336 h -55.033 -55.034 v 55.0336 55.0336 h 55.034 55.033 z m -220.134,-440.269 v -55.0337 h -55.0339 -55.033 v 55.0337 55.0336 h 55.033 55.0339 z m -1320.8068,330.2017 v -55.0336 h 55.033 55.034 v 55.0336 55.0337 h -55.034 -55.033 z m 330.201,-440.269 v -55.0336 h 55.034 55.034 v 55.0336 55.0336 h -55.034 -55.034 z m 990.6058,-330.2018 v -55.0336 h 55.033 55.034 v 55.0336 55.0337 h -55.034 -55.033 z M 9274.6276,4017.69 v -55.0336 h -55.033 -55.034 v 55.0336 55.0336 h 55.034 55.033 z m 440.2689,0 v -55.0336 h 55.034 55.034 v 55.0336 55.0336 h 110.067 110.0755 v -55.0336 -55.0336 h -110.0755 -110.067 v -55.0337 -55.0336 h -220.135 -220.1339 v 55.0336 55.0337 h 55.033 55.0339 v 55.0336 55.0336 h 110.067 110.067 z m 880.5465,0 v -55.0336 h -110.067 -110.067 v 55.0336 55.0336 h 110.067 110.067 z m 0,-220.1345 v -55.0337 h -55.033 -55.034 v 55.0337 55.0336 h 55.034 55.033 z m 0,-1375.8407 v -110.0672 h -55.033 -55.034 v -55.0336 -55.0337 h -110.067 -110.067 v 55.0337 55.0336 h 110.067 110.067 v 55.0336 55.0336 h -55.034 -55.033 v 55.0337 55.0336 h 110.067 110.067 z M 8614.2247,1706.2777 v -385.2354 h -385.236 -385.235 v 385.2354 385.2354 h 385.235 385.236 z m -660.404,0 v -275.1682 h 275.168 275.168 v 275.1682 275.1681 h -275.168 -275.168 z m 440.269,0 v -165.1009 h -165.101 -165.101 v 165.1009 165.1009 h 165.101 165.101 z m 2201.3533,0 v -385.2354 h -385.235 -385.2435 v 385.2354 385.2354 h 385.2435 385.235 z m -660.4115,0 v -275.1682 h 275.1765 275.168 v 275.1682 275.1681 h -275.168 -275.1765 z m 440.2775,0 v -165.1009 h -165.101 -165.101 v 165.1009 165.1009 h 165.101 165.101 z"
             id="path4574"
             inkscape:connector-curvature="0"
             sodipodi:nodetypes="ccccccccccccccccccccccccccccccccccccccccccccccccccccccccccccccccccccccccccccccccccccccccccccccccccccccccccccccccccccccccccccccccccccccccccccccccccccccccccccccccccccccccccccccccccccccccccccccccccccccccccccccccccccccccccccccccccccccccccccccccccccccccccccccccccccccccccccccccccccccccccccccccccccccccccccccccccccccccccccccccccccccccccccccccccccccccccccccccccccccccccccccccccccccccccccccccccccccccccccccccccccccccccccccccccccccccccccccccccccccccccccccccccccccccccccccccccccccccccccccccccccccccccccccccccccccccccccccccccccccccccccccccccccccccccccccccccccccccccccccccccccccccccccccccccccccccccccccccccccccccccccccccccccccccccccccccccccccccccccccccccccccccccccccccccccccccccccccccccccccccccccccccccccccccccccccccccccccccccccccccccccccccccccccccccccccccccccccccccccccccccccccccccccccccccccccccccccccccc" />
        </g>
      </g>
      <text
         xml:space="preserve"
         style="font-style:normal;font-weight:normal;font-size:1597.82189941px;line-height:1.25;font-family:sans-serif;letter-spacing:0px;word-spacing:0px;clip-rule:evenodd;fill:#ffffff;fill-opacity:1;fill-rule:evenodd;stroke:none;stroke-width:39.94554901;image-rendering:optimizeQuality;shape-rendering:geometricPrecision;text-rendering:geometricPrecision;"
         x="6152.9766"
         y="5404.6758"
         id="text53"><tspan
           sodipodi:role="line"
           id="tspan51"
           x="6152.9766"
           y="5404.6758"
           style="font-style:normal;font-variant:normal;font-weight:normal;font-stretch:normal;font-family:'Continuum Medium';-inkscape-font-specification:'Continuum Medium, ';letter-spacing:28.83911318px;fill:#ffffff;fill-opacity:1;stroke-width:39.94554901;">Custom Software Solutions</tspan></text>
    </g>
  </g>
</svg>
