<?xml version="1.0" encoding="UTF-8" standalone="no"?>
<!-- Created with Inkscape (http://www.inkscape.org/) -->

<svg
   xmlns:dc="http://purl.org/dc/elements/1.1/"
   xmlns:cc="http://creativecommons.org/ns#"
   xmlns:rdf="http://www.w3.org/1999/02/22-rdf-syntax-ns#"
   xmlns:svg="http://www.w3.org/2000/svg"
   xmlns="http://www.w3.org/2000/svg"
   xmlns:sodipodi="http://sodipodi.sourceforge.net/DTD/sodipodi-0.dtd"
   xmlns:inkscape="http://www.inkscape.org/namespaces/inkscape"
   width="247.15396mm"
   height="54.191429mm"
   viewBox="0 0 247.15396 54.191429"
   version="1.1"
   id="svg855"
   inkscape:version="0.92.5 (2060ec1f9f, 2020-04-08)"
   sodipodi:docname="daxslab-horizontal-black.svg">
  <defs
     id="defs849" />
  <sodipodi:namedview
     id="base"
     pagecolor="#ffffff"
     bordercolor="#666666"
     borderopacity="1.0"
     inkscape:pageopacity="0.0"
     inkscape:pageshadow="2"
     inkscape:zoom="0.49497475"
     inkscape:cx="2107.4843"
     inkscape:cy="15.545093"
     inkscape:document-units="mm"
     inkscape:current-layer="text53"
     showgrid="false"
     fit-margin-top="0"
     fit-margin-left="0"
     fit-margin-right="0"
     fit-margin-bottom="0"
     inkscape:window-width="1366"
     inkscape:window-height="768"
     inkscape:window-x="0"
     inkscape:window-y="0"
     inkscape:window-maximized="0" />
  <metadata
     id="metadata852">
    <rdf:RDF>
      <cc:Work
         rdf:about="">
        <dc:format>image/svg+xml</dc:format>
        <dc:type
           rdf:resource="http://purl.org/dc/dcmitype/StillImage" />
        <dc:title />
      </cc:Work>
    </rdf:RDF>
  </metadata>
  <g
     inkscape:label="Layer 1"
     inkscape:groupmode="layer"
     id="layer1"
     transform="translate(18.4996,-114.93405)">
    <g
       style="clip-rule:evenodd;fill-rule:evenodd;image-rendering:optimizeQuality;shape-rendering:geometricPrecision;text-rendering:geometricPrecision"
       id="g72"
       transform="matrix(0.01000016,0,0,0.01000016,-18.4996,114.93405)">
      <path
         style="fill:#000000"
         inkscape:connector-curvature="0"
         id="path7"
         d="m 24715,1930 c 0,346 -92,645 -277,896 -201,273 -460,410 -776,410 H 22054 V 0 h 692 v 673 h 925 c 307,0 561,131 762,391 188,244 282,533 282,866 z m -722,25 c 0,-195 -58,-367 -173,-517 -116,-150 -262,-225 -440,-225 h -634 v 1469 h 668 c 172,0 311,-73 418,-220 107,-147 161,-316 161,-507 z m -5378,1281 h -692 V 0 h 692 z m 2944,0 h -1851 c -207,0 -385,-70 -531,-210 -147,-140 -221,-318 -221,-532 0,-224 67,-410 200,-556 134,-147 300,-221 501,-221 h 1194 v -138 c 0,-43 -7,-80 -22,-112 -15,-31 -39,-68 -72,-111 -46,-53 -93,-86 -142,-101 -50,-15 -119,-23 -207,-23 H 19130 V 668 h 1098 213 c 240,0 420,21 539,62 119,42 221,103 307,186 109,109 181,227 217,356 37,129 55,294 55,495 z m -708,-524 v -505 h -870 c -83,0 -153,24 -211,72 -57,48 -86,111 -86,190 0,70 28,127 84,174 56,46 120,69 193,69 z m -9652,0 v -505 h -871 c -82,0 -152,24 -210,72 -58,48 -87,111 -87,190 0,70 28,127 84,174 56,46 121,69 193,69 z m 707,524 h -1850 c -208,0 -385,-70 -532,-210 -147,-140 -220,-318 -220,-532 0,-224 67,-410 200,-556 133,-147 300,-221 501,-221 h 1194 v -138 c 0,-43 -8,-80 -22,-112 -15,-31 -39,-68 -72,-111 -46,-53 -93,-86 -143,-101 -49,-15 -119,-23 -207,-23 H 9477 V 668 h 1098 213 c 241,0 421,21 539,62 119,42 221,103 307,186 109,109 182,227 218,356 36,129 54,294 54,495 z m 3008,-2572 -984,1296 955,1276 h -886 l -495,-683 -519,683 h -866 l 970,-1256 -980,-1316 h 866 l 534,737 525,-737 z M 8220,2677 V 1218 h -638 c -178,0 -325,71 -440,212 -116,142 -173,310 -173,505 0,195 53,367 158,517 106,150 247,225 426,225 z m 688,559 H 7300 c -310,0 -567,-138 -772,-415 -188,-258 -282,-559 -282,-906 0,-333 106,-623 317,-871 211,-247 475,-371 792,-371 h 885 V 0 h 668 z m 8655,-791 c 0,217 -70,404 -210,559 -140,155 -318,232 -532,232 h -1697 v -465 h 1395 c 99,0 183,-25 250,-74 68,-50 102,-120 102,-213 0,-214 -146,-321 -436,-321 h -712 c -152,0 -299,-73 -441,-218 -141,-145 -212,-302 -212,-470 0,-238 52,-429 158,-574 122,-165 302,-247 539,-247 h 1633 v 484 h -1455 c -56,0 -104,28 -146,82 -41,55 -61,116 -61,186 0,76 27,141 81,195 55,55 120,82 196,82 h 767 c 240,0 431,71 571,215 140,143 210,326 210,547 z"
         class="fil0" />
      <rect
         style="fill:#000000"
         id="rect11"
         height="156"
         width="18469"
         y="3693"
         x="6246"
         class="fil1" />
      <g
         transform="matrix(0.99997836,0,0,0.99997836,-6490.8595,6.5585279)"
         id="g19"
         style="clip-rule:evenodd;fill-rule:evenodd;image-rendering:optimizeQuality;shape-rendering:geometricPrecision;text-rendering:geometricPrecision;fill:#000000">
        <polygon
           style="fill:#000000"
           id="polygon7"
           points="9732,4401 10916,4401 10916,3203 11635,3203 11635,5096 9732,5096 "
           class="fil0" />
        <g
           id="g17"
           style="fill:#000000">
          <polygon
             style="fill:#000000"
             id="polygon9"
             points="8703,1005 7520,1005 7520,2202 6800,2202 6800,309 8703,309 "
             class="fil0" />
          <polygon
             style="fill:#000000"
             id="polygon13"
             points="11945,3087 10916,3087 10916,1005 8858,1005 8858,0 11945,0 "
             class="fil0" />
          <polygon
             style="fill:#000000"
             id="polygon15-3"
             points="6491,2319 7520,2319 7520,4401 9577,4401 9577,5406 6491,5406 "
             class="fil0" />
          <path
             style="clip-rule:evenodd;fill:#000000;fill-opacity:1;fill-rule:evenodd;stroke-width:8.46671104;image-rendering:optimizeQuality;shape-rendering:geometricPrecision;text-rendering:geometricPrecision"
             d="M 7674.4197,2701.1163 V 1160.1748 H 9219.5946 10764.778 V 2701.1163 4242.0579 H 9219.5946 7674.4197 Z m 939.805,986.3719 v -385.2354 h -385.236 -385.235 v 385.2354 385.2354 h 385.235 385.236 z m -660.404,0 v -275.1681 h 275.168 275.168 v 275.1681 275.1682 h -275.168 -275.168 z m 440.269,0 v -165.1009 h -165.101 -165.101 v 165.1009 165.1009 h 165.101 165.101 z m 660.4039,330.2018 v -55.0336 h -55.0339 -55.0331 v -55.0337 -55.0336 h 55.0331 55.0339 v -55.0336 -55.0337 h 55.0331 55.0339 v -55.0336 -55.0336 h -110.067 -110.067 v -55.0337 -55.0336 h 55.0331 55.0339 v -55.0336 -55.0336 h 55.0331 55.0339 v 55.0336 55.0336 h 55.034 55.033 v -220.1345 -220.1345 h 110.068 110.0669 v 55.0337 55.0335 h -55.0339 -55.033 v 55.0337 55.0336 h 55.033 55.0339 v 55.0336 55.0337 h -55.0339 -55.033 v 55.0336 55.0336 h 55.033 55.0339 v -55.0336 -55.0336 h 55.033 55.034 v 110.0672 110.0673 h 220.135 220.1425 v 110.0672 110.0673 h 55.034 55.033 v 55.0336 55.0337 h 55.034 55.034 v -55.0337 -55.0336 h 55.033 55.034 v -110.0673 -110.0672 h -55.034 -55.033 v 55.0336 55.0336 h -55.034 -55.034 v -110.0672 -110.0673 h 165.101 165.101 v 55.0336 55.0337 h 55.034 55.033 v -220.1345 -220.1346 h -55.033 -55.034 v 55.0337 55.0336 h -55.034 -55.033 v -110.0673 -110.0672 h 55.033 55.034 v -55.0336 -55.0336 h 55.034 55.033 v -165.1009 -165.1008 h -110.067 -110.067 v 55.0336 55.0336 h -55.034 -55.033 v -55.0336 -55.0336 h -55.034 -55.034 v -55.0337 -55.0336 h -55.033 -55.034 v 55.0336 55.0337 h -55.0355 -55.04 v -165.1009 -165.1009 h 110.0755 110.067 v -55.0336 -55.0337 h -165.1025 -165.107 v 110.0673 110.0672 h -55.034 -55.034 v -110.0672 -110.0673 h -55.033 -55.034 v -55.0336 -55.0336 h 55.034 55.033 v -55.0337 -55.0336 h -55.033 -55.034 v -55.0336 -55.0336 h 55.034 55.033 v -55.0337 -55.0336 h -55.033 -55.034 v -55.0336 -55.0337 h 55.034 55.033 v -55.0336 -55.0336 h -55.033 -55.034 v -110.0673 -110.0672 h -110.067 -110.0669 v 55.0336 55.0336 h -55.034 -55.034 v 55.0337 55.0336 h 55.034 55.034 v -55.0336 -55.0337 h 55.033 55.0339 v 55.0337 55.0336 h 55.033 55.034 v 55.0336 55.0336 h -55.034 -55.033 v 55.0337 55.0336 h -55.0339 -55.033 v 55.0336 55.0337 h 55.033 55.0339 v 55.0336 55.0336 h -55.0339 -55.033 v 55.0336 55.0337 h 55.033 55.0339 v 55.0336 55.0336 h -165.1009 -165.101 v -55.0336 -55.0336 h 55.034 55.033 V 1871.3786 1651.244 h -55.033 -55.034 v 220.1346 220.1345 h -55.0339 -55.0331 v -165.1009 -165.1009 h -55.0339 -55.0331 v -55.0336 -55.0337 h -55.0339 -55.034 v -55.0336 -55.0336 h 110.0679 110.067 v -110.0673 -110.0672 h -55.0339 -55.0331 v 55.0336 55.0336 h -110.0679 -110.067 v 110.0673 110.0672 h 55.034 55.033 v 55.0337 55.0336 h -55.033 -55.034 v 220.1345 220.1345 h -110.067 -110.068 v 55.0337 55.0336 h -55.033 -55.034 v 165.1009 165.1009 h -55.033 -55.034 v -55.0337 -55.0336 h -55.034 -55.033 v -55.0336 -55.0337 h 55.033 55.034 v -110.0672 -110.0673 h -55.034 -55.033 v 55.0337 55.0336 h -55.034 -55.034 v -55.0336 -55.0337 h -110.067 -110.067 v 55.0337 55.0336 h 110.067 110.067 v 110.0672 110.0673 h -55.033 -55.034 v -55.0336 -55.0337 h -55.033 -55.034 v 55.0337 55.0336 h 55.034 55.033 v 55.0336 55.0337 h 55.034 55.033 v -55.0337 -55.0336 h 55.034 55.034 v 110.0673 110.0672 h -55.034 -55.034 v 55.0336 55.0337 h 55.034 55.034 v 110.0672 110.0672 h -55.034 -55.034 v -55.0336 -55.0336 h -55.033 -55.034 v -55.0336 -55.0336 h -55.033 -55.034 v 55.0336 55.0336 h 55.034 55.033 v 55.0336 55.0336 h -55.033 -55.034 v 55.0337 55.0335 h 220.134 220.135 v -110.0672 -110.0672 h 55.034 55.033 v 110.0672 110.0672 h 165.101 165.101 v 110.0673 110.0673 h 55.034 55.033 v 110.0672 110.0673 h -55.033 -55.034 v 55.0336 55.0336 h 110.067 110.0679 v 55.0337 55.0336 h -110.0679 -110.067 v 110.0673 110.0672 h 165.101 165.1009 z m 660.4029,-660.4036 v -165.1009 h 165.101 165.1095 v 165.1009 165.1009 h -165.1095 -165.101 z m 220.135,0 v -55.0336 h -55.034 -55.033 v 55.0336 55.0337 h 55.033 55.034 z m 220.1425,0 v -55.0336 h 110.068 110.067 v 55.0336 55.0337 h -110.067 -110.068 z M 8834.3587,3247.2192 v -55.0337 h -55.033 -55.034 v -55.0335 -55.0337 h -110.067 -110.068 v -55.0336 -55.0336 h 110.068 110.067 v -110.0672 -110.0673 h -55.034 -55.033 v 55.0336 55.0337 h -55.034 -55.034 v -55.0337 -55.0336 h 55.034 55.034 v -55.0336 -55.0336 h -55.034 -55.034 v -55.0337 -55.0336 h 165.101 165.101 v -55.0336 -55.0337 h -55.033 -55.034 v -110.0672 -110.0673 h 55.034 55.033 v -165.1009 -165.1008 h 55.034 55.0339 v 165.1008 165.1009 h 55.0331 55.0339 v 165.1009 165.1009 h -110.067 -110.0679 v 55.0336 55.0337 h 55.034 55.0339 v 55.0336 55.0336 h 55.0331 55.0339 v 165.1009 165.1008 h 55.0331 55.0339 v -220.1344 -220.1345 h 55.034 55.033 v 220.1345 220.1344 h -55.033 -55.034 v 110.0672 110.0673 h -55.0339 -55.0331 v -55.0336 -55.0337 h -55.0339 -55.0331 v 55.0337 55.0336 h -55.0339 -55.034 z m 110.0679,-220.1345 v -55.0336 h -110.0679 -110.067 v 55.0336 55.0336 h 110.067 110.0679 z m 0,-660.4035 v -55.0336 h -55.0339 -55.034 v 55.0336 55.0336 h 55.034 55.0339 z m 550.3359,880.538 v -55.0337 h 55.033 55.034 v 55.0337 55.0336 h -55.034 -55.033 z m 110.067,-220.1345 v -55.0336 h -55.034 -55.033 v -55.0336 -55.0336 h -55.0339 -55.033 V 2696.883 2531.7821 h -55.034 -55.034 v -55.0336 -55.0337 h 55.034 55.034 v -55.0336 -55.0336 h 110.0669 110.067 v 110.0672 110.0673 h 55.034 55.033 v 55.0336 55.0337 h 55.034 55.034 v 55.0336 55.0336 h -55.034 -55.034 v 55.0336 55.0337 h 110.068 110.067 v 55.0336 55.0336 h 110.0755 110.067 v -55.0336 -55.0336 h -55.033 -55.034 v -110.0673 -110.0672 h 55.034 55.033 v 110.0672 110.0673 h 55.034 55.034 v 55.0336 55.0336 h 55.033 55.034 v -110.0672 -110.0673 h 55.033 55.034 v 110.0673 110.0672 h -55.034 -55.033 v 55.0336 55.0336 h -55.034 -55.033 v -55.0336 -55.0336 h -55.034 -55.034 v 55.0336 55.0336 h -110.067 -110.0755 v -55.0336 -55.0336 h -110.067 -110.068 v 55.0336 55.0336 h -55.033 -55.034 z m 110.067,-110.0672 v -55.0336 h -55.033 -55.034 v 55.0336 55.0336 h 55.034 55.033 z m -220.134,-440.269 v -55.0337 h -55.0339 -55.033 v 55.0337 55.0336 h 55.033 55.0339 z m -1320.8068,330.2017 v -55.0336 h 55.033 55.034 v 55.0336 55.0337 h -55.034 -55.033 z m 330.201,-440.269 v -55.0336 h 55.034 55.034 v 55.0336 55.0336 h -55.034 -55.034 z m 990.6058,-330.2018 v -55.0336 h 55.033 55.034 v 55.0336 55.0337 h -55.034 -55.033 z M 9274.6276,4017.69 v -55.0336 h -55.033 -55.034 v 55.0336 55.0336 h 55.034 55.033 z m 440.2689,0 v -55.0336 h 55.034 55.034 v 55.0336 55.0336 h 110.067 110.0755 v -55.0336 -55.0336 h -110.0755 -110.067 v -55.0337 -55.0336 h -220.135 -220.1339 v 55.0336 55.0337 h 55.033 55.0339 v 55.0336 55.0336 h 110.067 110.067 z m 880.5465,0 v -55.0336 h -110.067 -110.067 v 55.0336 55.0336 h 110.067 110.067 z m 0,-220.1345 v -55.0337 h -55.033 -55.034 v 55.0337 55.0336 h 55.034 55.033 z m 0,-1375.8407 v -110.0672 h -55.033 -55.034 v -55.0336 -55.0337 h -110.067 -110.067 v 55.0337 55.0336 h 110.067 110.067 v 55.0336 55.0336 h -55.034 -55.033 v 55.0337 55.0336 h 110.067 110.067 z M 8614.2247,1706.2777 v -385.2354 h -385.236 -385.235 v 385.2354 385.2354 h 385.235 385.236 z m -660.404,0 v -275.1682 h 275.168 275.168 v 275.1682 275.1681 h -275.168 -275.168 z m 440.269,0 v -165.1009 h -165.101 -165.101 v 165.1009 165.1009 h 165.101 165.101 z m 2201.3533,0 v -385.2354 h -385.235 -385.2435 v 385.2354 385.2354 h 385.2435 385.235 z m -660.4115,0 v -275.1682 h 275.1765 275.168 v 275.1682 275.1681 h -275.168 -275.1765 z m 440.2775,0 v -165.1009 h -165.101 -165.101 v 165.1009 165.1009 h 165.101 165.101 z"
             id="path4574"
             inkscape:connector-curvature="0"
             sodipodi:nodetypes="ccccccccccccccccccccccccccccccccccccccccccccccccccccccccccccccccccccccccccccccccccccccccccccccccccccccccccccccccccccccccccccccccccccccccccccccccccccccccccccccccccccccccccccccccccccccccccccccccccccccccccccccccccccccccccccccccccccccccccccccccccccccccccccccccccccccccccccccccccccccccccccccccccccccccccccccccccccccccccccccccccccccccccccccccccccccccccccccccccccccccccccccccccccccccccccccccccccccccccccccccccccccccccccccccccccccccccccccccccccccccccccccccccccccccccccccccccccccccccccccccccccccccccccccccccccccccccccccccccccccccccccccccccccccccccccccccccccccccccccccccccccccccccccccccccccccccccccccccccccccccccccccccccccccccccccccccccccccccccccccccccccccccccccccccccccccccccccccccccccccccccccccccccccccccccccccccccccccccccccccccccccccccccccccccccccccccccccccccccccccccccccccccccccccccccccccccccccccccc" />
        </g>
      </g>
      <g
         aria-label="Custom Software Solutions"
         style="font-style:normal;font-weight:normal;font-size:1597.82189941px;line-height:1.25;font-family:sans-serif;letter-spacing:0px;word-spacing:0px;clip-rule:evenodd;fill:#ffffff;fill-opacity:1;fill-rule:evenodd;stroke:none;stroke-width:39.94554901;image-rendering:optimizeQuality;shape-rendering:geometricPrecision;text-rendering:geometricPrecision"
         id="text53">
        <path
           d="m 6250.4437,5136.2417 v -575.2159 q 0,-119.8366 70.3042,-196.5321 70.3041,-78.2932 188.5429,-78.2932 h 469.7597 v 161.38 h -448.988 q -118.2388,0 -118.2388,118.2388 v 557.6398 q 0,49.5325 33.5543,84.6846 35.1521,35.1521 84.6845,35.1521 h 445.7923 v 161.38 h -479.3465 q -68.7064,0 -140.6084,-47.9347 -105.4562,-70.3041 -105.4562,-220.4994 z"
           style="font-style:normal;font-variant:normal;font-weight:normal;font-stretch:normal;font-family:'Continuum Medium';-inkscape-font-specification:'Continuum Medium, ';letter-spacing:28.83911324px;fill:#000000;fill-opacity:1;stroke-width:39.94554901"
           id="path824" />
        <path
           d="m 7170.8653,5188.9698 v -623.1505 h 140.6083 l 1.5978,643.9222 q 11.1848,52.7281 94.2715,52.7281 h 222.0973 q 51.1303,0 71.9019,-19.1738 22.3695,-20.7717 22.3695,-71.902 V 4565.8193 H 7864.32 v 623.1505 q 0,215.706 -236.4777,215.706 h -220.4994 q -236.4776,0 -236.4776,-215.706 z"
           style="font-style:normal;font-variant:normal;font-weight:normal;font-stretch:normal;font-family:'Continuum Medium';-inkscape-font-specification:'Continuum Medium, ';letter-spacing:28.83911324px;fill:#000000;fill-opacity:1;stroke-width:39.94554901"
           id="path826" />
        <path
           d="m 8060.93,5404.6758 v -139.0105 h 428.2163 q 19.1738,0 33.5542,-15.9782 23.9674,-19.1739 23.9674,-68.7064 v -63.9129 q 0,-78.2932 -81.4889,-78.2932 h -190.1408 q -135.8149,0 -188.543,-91.0759 -22.3695,-38.3477 -22.3695,-83.0867 v -107.0541 q 0,-89.478 47.9346,-140.6083 49.5325,-51.1303 137.4127,-51.1303 h 439.401 v 140.6083 h -426.6184 q -59.1194,0 -59.1194,60.7172 v 60.7173 q 0,30.3586 22.3695,49.5325 22.3695,19.1738 54.3259,19.1738 h 207.7169 q 23.9673,0 38.3477,3.1957 71.902,15.9782 116.641,67.1085 44.739,51.1303 44.739,123.0323 v 131.0214 q 0,86.2823 -73.4998,146.9996 -60.7172,36.7499 -105.4563,36.7499 z"
           style="font-style:normal;font-variant:normal;font-weight:normal;font-stretch:normal;font-family:'Continuum Medium';-inkscape-font-specification:'Continuum Medium, ';letter-spacing:28.83911324px;fill:#000000;fill-opacity:1;stroke-width:39.94554901"
           id="path828" />
        <path
           d="M 8883.8858,5404.6758 V 4286.2005 h 140.6084 v 279.6188 h 143.8039 v 140.6083 h -143.8039 v 698.2482 z"
           style="font-style:normal;font-variant:normal;font-weight:normal;font-stretch:normal;font-family:'Continuum Medium';-inkscape-font-specification:'Continuum Medium, ';letter-spacing:28.83911324px;fill:#000000;fill-opacity:1;stroke-width:39.94554901"
           id="path830" />
        <path
           d="m 9280.2232,5198.5568 v -436.2054 q 0,-172.5648 186.9452,-194.9343 6.3913,0 19.1739,-1.5978 h 274.8253 q 11.1848,0 33.5543,3.1956 190.1408,27.163 190.1408,193.3365 v 436.2054 q 0,115.0431 -115.0432,180.5538 -44.739,25.5652 -108.6519,25.5652 h -262.0428 q -159.7822,0 -209.3146,-151.7931 -17.5761,-51.1303 -9.587,-54.3259 z m 241.2711,67.1085 h 225.2929 q 97.4672,0 97.4672,-107.0541 v -351.5208 q 0,-100.6628 -97.4672,-100.6628 h -225.2929 q -100.6627,0 -100.6627,100.6628 v 346.7273 q 0,111.8476 100.6627,111.8476 z"
           style="font-style:normal;font-variant:normal;font-weight:normal;font-stretch:normal;font-family:'Continuum Medium';-inkscape-font-specification:'Continuum Medium, ';letter-spacing:28.83911324px;fill:#000000;fill-opacity:1;stroke-width:39.94554901"
           id="path832" />
        <path
           d="m 10208.636,5404.6758 v -626.3462 q 0,-212.5103 193.336,-212.5103 h 126.228 q 12.783,0 35.152,3.1956 89.478,12.7826 126.228,70.3042 35.152,-57.5216 126.228,-70.3042 22.37,-3.1956 35.152,-3.1956 h 126.228 q 193.337,0 193.337,212.5103 v 626.3462 h -139.011 v -615.1615 q 0,-79.891 -84.684,-79.891 h -123.033 q -55.923,11.1847 -55.923,87.8802 v 607.1723 h -139.011 v -616.7593 q -1.598,-6.3913 -1.598,-7.9891 -14.38,-71.902 -86.282,-71.902 h -110.25 q -11.185,0 -15.978,1.5979 -35.152,3.1956 -47.935,17.576 -12.782,14.3804 -17.576,49.5325 v 627.944 z"
           style="font-style:normal;font-variant:normal;font-weight:normal;font-stretch:normal;font-family:'Continuum Medium';-inkscape-font-specification:'Continuum Medium, ';letter-spacing:28.83911324px;fill:#000000;fill-opacity:1;stroke-width:39.94554901"
           id="path834" />
        <path
           d="m 11841.764,5404.6758 v -161.38 h 445.792 q 4.794,0 9.587,-1.5979 h 7.989 q 35.153,-3.1956 62.316,-28.7607 28.76,-27.163 28.76,-62.3151 V 5008.416 q 0,-78.2933 -100.662,-91.0759 -4.794,-1.5978 -17.577,-1.5978 h -167.771 q -105.456,0 -183.749,-59.1194 -83.087,-63.9129 -83.087,-167.7713 v -142.2062 q 0,-175.7604 137.413,-239.6733 44.739,-20.7716 131.021,-20.7716 h 453.781 v 161.38 h -469.759 q -4.794,1.5978 -7.989,1.5978 -83.087,12.7826 -83.087,91.0758 v 110.2497 q 0,116.641 105.456,116.641 h 196.532 q 73.5,0 137.413,36.7499 115.043,65.5107 115.043,178.9561 v 175.7604 q 0,127.8258 -103.858,199.7277 -67.109,46.3369 -148.598,46.3369 z"
           style="font-style:normal;font-variant:normal;font-weight:normal;font-stretch:normal;font-family:'Continuum Medium';-inkscape-font-specification:'Continuum Medium, ';letter-spacing:28.83911324px;fill:#000000;fill-opacity:1;stroke-width:39.94554901"
           id="path836" />
        <path
           d="m 12757.394,5198.5568 v -436.2054 q 0,-172.5648 186.946,-194.9343 6.391,0 19.173,-1.5978 h 274.826 q 11.185,0 33.554,3.1956 190.141,27.163 190.141,193.3365 v 436.2054 q 0,115.0431 -115.043,180.5538 -44.739,25.5652 -108.652,25.5652 h -262.043 q -159.782,0 -209.315,-151.7931 -17.576,-51.1303 -9.587,-54.3259 z m 241.271,67.1085 h 225.293 q 97.468,0 97.468,-107.0541 v -351.5208 q 0,-100.6628 -97.468,-100.6628 h -225.293 q -100.662,0 -100.662,100.6628 v 346.7273 q 0,111.8476 100.662,111.8476 z"
           style="font-style:normal;font-variant:normal;font-weight:normal;font-stretch:normal;font-family:'Continuum Medium';-inkscape-font-specification:'Continuum Medium, ';letter-spacing:28.83911324px;fill:#000000;fill-opacity:1;stroke-width:39.94554901"
           id="path838" />
        <path
           d="m 13685.806,5404.6758 v -904.3672 q 0,-27.163 6.392,-52.7281 41.543,-161.38 218.901,-161.38 h 59.12 v 140.6083 h -73.5 q -70.304,17.576 -70.304,99.0649 v 39.9456 h 142.206 v 140.6083 h -142.206 v 698.2482 z"
           style="font-style:normal;font-variant:normal;font-weight:normal;font-stretch:normal;font-family:'Continuum Medium';-inkscape-font-specification:'Continuum Medium, ';letter-spacing:28.83911324px;fill:#000000;fill-opacity:1;stroke-width:39.94554901"
           id="path840" />
        <path
           d="M 14106.11,5404.6758 V 4286.2005 h 140.609 v 279.6188 h 143.804 v 140.6083 h -143.804 v 698.2482 z"
           style="font-style:normal;font-variant:normal;font-weight:normal;font-stretch:normal;font-family:'Continuum Medium';-inkscape-font-specification:'Continuum Medium, ';letter-spacing:28.83911324px;fill:#000000;fill-opacity:1;stroke-width:39.94554901"
           id="path842" />
        <path
           d="m 14419.361,4565.8193 h 137.413 l 159.782,666.2917 162.978,-611.9658 q 19.173,-70.3041 103.858,-70.3041 35.152,0 67.109,19.1738 31.956,19.1739 39.945,51.1303 l 159.782,611.9658 159.782,-666.2917 h 139.011 l -186.945,776.5414 q -19.174,76.6955 -107.054,76.6955 -94.272,0 -118.239,-92.6737 l -150.195,-591.1941 -154.989,591.1941 q -17.576,67.1085 -71.902,84.6846 -23.967,7.9891 -46.337,7.9891 -91.076,0 -108.652,-76.6955 z"
           style="font-style:normal;font-variant:normal;font-weight:normal;font-stretch:normal;font-family:'Continuum Medium';-inkscape-font-specification:'Continuum Medium, ';letter-spacing:28.83911324px;fill:#000000;fill-opacity:1;stroke-width:39.94554901"
           id="path844" />
        <path
           d="m 15688.109,5179.3829 v -100.6628 q 0,-113.4453 49.532,-182.1517 55.924,-78.2933 164.576,-78.2933 h 345.129 v -55.9237 q 0,-22.3695 -15.978,-38.3477 -15.978,-17.5761 -36.75,-17.5761 h -506.509 v -140.6083 h 496.922 q 164.576,0 199.728,154.9887 3.196,25.5652 3.196,38.3477 v 431.4119 q 0,57.5216 -30.359,107.0541 -67.108,107.0541 -174.162,107.0541 h -279.619 q -62.315,0 -121.435,-43.1412 -59.119,-43.1412 -81.489,-102.2606 -12.782,-35.1521 -12.782,-79.8911 z m 177.358,73.4998 q 23.967,12.7826 78.293,12.7826 h 188.543 q 115.043,0 115.043,-83.0868 v -135.8148 q 0,-79.8911 -97.467,-89.4781 h -222.097 q -99.065,11.1848 -99.065,89.4781 v 135.8148 q 0,51.1303 36.75,70.3042 z"
           style="font-style:normal;font-variant:normal;font-weight:normal;font-stretch:normal;font-family:'Continuum Medium';-inkscape-font-specification:'Continuum Medium, ';letter-spacing:28.83911324px;fill:#000000;fill-opacity:1;stroke-width:39.94554901"
           id="path846" />
        <path
           d="m 16611.727,5404.6758 v -616.7593 q 0,-20.7717 3.196,-47.9346 9.586,-83.0868 46.336,-119.8367 38.348,-38.3477 121.435,-51.1303 20.772,-3.1956 36.75,-3.1956 h 78.293 v 140.6083 h -68.706 q -76.696,0 -76.696,84.6846 v 613.5636 z"
           style="font-style:normal;font-variant:normal;font-weight:normal;font-stretch:normal;font-family:'Continuum Medium';-inkscape-font-specification:'Continuum Medium, ';letter-spacing:28.83911324px;fill:#000000;fill-opacity:1;stroke-width:39.94554901"
           id="path848" />
        <path
           d="m 17044.813,5184.1764 v -375.4882 q 0,-242.8689 260.445,-242.8689 h 207.717 q 102.26,0 161.38,57.5216 59.119,55.9237 59.119,156.5865 v 99.065 l -548.053,255.6515 v 36.7499 q 9.587,54.3259 25.565,71.902 19.174,22.3695 70.304,22.3695 h 461.771 v 139.0105 h -469.76 q -99.065,0 -164.575,-60.7173 -63.913,-60.7172 -63.913,-159.7821 z m 140.608,-202.9234 407.445,-190.1408 v -12.7826 q 0,-71.902 -84.685,-71.902 h -228.488 q -94.272,0 -94.272,105.4563 z"
           style="font-style:normal;font-variant:normal;font-weight:normal;font-stretch:normal;font-family:'Continuum Medium';-inkscape-font-specification:'Continuum Medium, ';letter-spacing:28.83911324px;fill:#000000;fill-opacity:1;stroke-width:39.94554901"
           id="path850" />
        <path
           d="m 18387.139,5404.6758 v -161.38 h 445.792 q 4.793,0 9.587,-1.5979 h 7.989 q 35.152,-3.1956 62.315,-28.7607 28.761,-27.163 28.761,-62.3151 V 5008.416 q 0,-78.2933 -100.663,-91.0759 -4.793,-1.5978 -17.576,-1.5978 h -167.771 q -105.457,0 -183.75,-59.1194 -83.087,-63.9129 -83.087,-167.7713 v -142.2062 q 0,-175.7604 137.413,-239.6733 44.739,-20.7716 131.022,-20.7716 h 453.781 v 161.38 h -469.76 q -4.793,1.5978 -7.989,1.5978 -83.087,12.7826 -83.087,91.0758 v 110.2497 q 0,116.641 105.457,116.641 h 196.532 q 73.5,0 137.412,36.7499 115.044,65.5107 115.044,178.9561 v 175.7604 q 0,127.8258 -103.859,199.7277 -67.108,46.3369 -148.597,46.3369 z"
           style="font-style:normal;font-variant:normal;font-weight:normal;font-stretch:normal;font-family:'Continuum Medium';-inkscape-font-specification:'Continuum Medium, ';letter-spacing:28.83911324px;fill:#000000;fill-opacity:1;stroke-width:39.94554901"
           id="path852" />
        <path
           d="m 19302.769,5198.5568 v -436.2054 q 0,-172.5648 186.945,-194.9343 6.391,0 19.174,-1.5978 h 274.825 q 11.185,0 33.555,3.1956 190.14,27.163 190.14,193.3365 v 436.2054 q 0,115.0431 -115.043,180.5538 -44.739,25.5652 -108.652,25.5652 h -262.043 q -159.782,0 -209.314,-151.7931 -17.576,-51.1303 -9.587,-54.3259 z m 241.271,67.1085 h 225.293 q 97.467,0 97.467,-107.0541 v -351.5208 q 0,-100.6628 -97.467,-100.6628 h -225.293 q -100.663,0 -100.663,100.6628 v 346.7273 q 0,111.8476 100.663,111.8476 z"
           style="font-style:normal;font-variant:normal;font-weight:normal;font-stretch:normal;font-family:'Continuum Medium';-inkscape-font-specification:'Continuum Medium, ';letter-spacing:28.83911324px;fill:#000000;fill-opacity:1;stroke-width:39.94554901"
           id="path854" />
        <path
           d="M 20231.181,5404.6758 V 4286.2005 h 140.608 v 1118.4753 z"
           style="font-style:normal;font-variant:normal;font-weight:normal;font-stretch:normal;font-family:'Continuum Medium';-inkscape-font-specification:'Continuum Medium, ';letter-spacing:28.83911324px;fill:#000000;fill-opacity:1;stroke-width:39.94554901"
           id="path856" />
        <path
           d="m 20595.561,5188.9698 v -623.1505 h 140.608 l 1.598,643.9222 q 11.185,52.7281 94.272,52.7281 h 222.097 q 51.13,0 71.902,-19.1738 22.369,-20.7717 22.369,-71.902 v -605.5745 h 140.609 v 623.1505 q 0,215.706 -236.478,215.706 h -220.499 q -236.478,0 -236.478,-215.706 z"
           style="font-style:normal;font-variant:normal;font-weight:normal;font-stretch:normal;font-family:'Continuum Medium';-inkscape-font-specification:'Continuum Medium, ';letter-spacing:28.83911324px;fill:#000000;fill-opacity:1;stroke-width:39.94554901"
           id="path858" />
        <path
           d="M 21512.788,5404.6758 V 4286.2005 h 140.609 v 279.6188 h 143.804 v 140.6083 h -143.804 v 698.2482 z"
           style="font-style:normal;font-variant:normal;font-weight:normal;font-stretch:normal;font-family:'Continuum Medium';-inkscape-font-specification:'Continuum Medium, ';letter-spacing:28.83911324px;fill:#000000;fill-opacity:1;stroke-width:39.94554901"
           id="path860" />
        <path
           d="m 21907.528,5404.6758 h 140.609 v -838.8565 h -140.609 z m -25.565,-1022.606 q 0,-39.9456 27.163,-67.1086 27.163,-28.7607 67.109,-28.7607 39.945,0 67.108,30.3586 28.761,28.7608 28.761,68.7063 0,39.9456 -27.163,67.1085 -27.163,27.163 -67.108,27.163 -41.544,0 -68.707,-27.163 -27.163,-28.7608 -27.163,-70.3041 z"
           style="font-style:normal;font-variant:normal;font-weight:normal;font-stretch:normal;font-family:'Continuum Medium';-inkscape-font-specification:'Continuum Medium, ';letter-spacing:28.83911324px;fill:#000000;fill-opacity:1;stroke-width:39.94554901"
           id="path862" />
        <path
           d="m 22273.506,5198.5568 v -436.2054 q 0,-172.5648 186.945,-194.9343 6.392,0 19.174,-1.5978 h 274.826 q 11.184,0 33.554,3.1956 190.141,27.163 190.141,193.3365 v 436.2054 q 0,115.0431 -115.044,180.5538 -44.739,25.5652 -108.651,25.5652 h -262.043 q -159.782,0 -209.315,-151.7931 -17.576,-51.1303 -9.587,-54.3259 z m 241.271,67.1085 h 225.293 q 97.467,0 97.467,-107.0541 v -351.5208 q 0,-100.6628 -97.467,-100.6628 h -225.293 q -100.662,0 -100.662,100.6628 v 346.7273 q 0,111.8476 100.662,111.8476 z"
           style="font-style:normal;font-variant:normal;font-weight:normal;font-stretch:normal;font-family:'Continuum Medium';-inkscape-font-specification:'Continuum Medium, ';letter-spacing:28.83911324px;fill:#000000;fill-opacity:1;stroke-width:39.94554901"
           id="path864" />
        <path
           d="m 23201.918,5404.6758 v -623.1506 q 0,-215.7059 236.478,-215.7059 h 220.499 q 236.478,0 236.478,215.7059 v 623.1506 h -140.608 v -643.9222 q -11.185,-52.7282 -94.272,-52.7282 h -222.097 q -52.728,0 -75.098,19.1739 -20.771,19.1739 -20.771,71.902 v 605.5745 z"
           style="font-style:normal;font-variant:normal;font-weight:normal;font-stretch:normal;font-family:'Continuum Medium';-inkscape-font-specification:'Continuum Medium, ';letter-spacing:28.83911324px;fill:#000000;fill-opacity:1;stroke-width:39.94554901"
           id="path866" />
        <path
           d="m 24091.984,5404.6758 v -139.0105 h 428.216 q 19.174,0 33.554,-15.9782 23.968,-19.1739 23.968,-68.7064 v -63.9129 q 0,-78.2932 -81.489,-78.2932 h -190.141 q -135.815,0 -188.543,-91.0759 -22.37,-38.3477 -22.37,-83.0867 v -107.0541 q 0,-89.478 47.935,-140.6083 49.533,-51.1303 137.413,-51.1303 h 439.401 v 140.6083 h -426.619 q -59.119,0 -59.119,60.7172 v 60.7173 q 0,30.3586 22.37,49.5325 22.369,19.1738 54.325,19.1738 h 207.717 q 23.968,0 38.348,3.1957 71.902,15.9782 116.641,67.1085 44.739,51.1303 44.739,123.0323 v 131.0214 q 0,86.2823 -73.5,146.9996 -60.717,36.7499 -105.456,36.7499 z"
           style="font-style:normal;font-variant:normal;font-weight:normal;font-stretch:normal;font-family:'Continuum Medium';-inkscape-font-specification:'Continuum Medium, ';letter-spacing:28.83911324px;fill:#000000;fill-opacity:1;stroke-width:39.94554901"
           id="path868" />
      </g>
    </g>
  </g>
</svg>
