<?xml version="1.0" standalone="no"?>
<!DOCTYPE svg PUBLIC "-//W3C//DTD SVG 20010904//EN"
 "http://www.w3.org/TR/2001/REC-SVG-20010904/DTD/svg10.dtd">
<svg version="1.0" xmlns="http://www.w3.org/2000/svg"
 width="644.000000pt" height="644.000000pt" viewBox="0 0 644.000000 644.000000"
 preserveAspectRatio="xMidYMid meet">
<metadata>
Created by potrace 1.11, written by Peter Selinger 2001-2013
</metadata>
<g transform="translate(0.000000,644.000000) scale(0.100000,-0.100000)"
fill="#000000" stroke="none">
<path d="M2800 5850 l0 -590 1213 -2 1212 -3 3 -1227 2 -1228 605 0 605 0 0
1820 0 1820 -1820 0 -1820 0 0 -590z"/>
<path d="M360 4955 l0 -1115 425 0 425 0 0 710 0 710 700 0 700 0 0 405 0 405
-1125 0 -1125 0 0 -1115z"/>
<path d="M1490 4475 l0 -475 475 0 475 0 0 475 0 475 -475 0 -475 0 0 -475z
m830 7 l0 -349 -347 -6 c-192 -3 -351 -3 -355 0 -5 2 -8 161 -8 354 l0 349
355 0 355 0 0 -348z"/>
<path d="M1760 4587 c0 -52 3 -142 7 -200 l6 -107 199 0 198 0 0 200 0 200
-205 0 -205 0 0 -93z"/>
<path d="M2870 4885 l0 -65 -135 0 -135 0 0 -89 c0 -48 -3 -109 -6 -135 l-7
-46 67 0 66 0 0 70 0 70 140 0 140 0 0 130 0 130 -65 0 -65 0 0 -65z"/>
<path d="M3420 4890 l0 -60 70 0 70 0 0 -70 0 -70 70 0 70 0 0 130 0 130 -140
0 -140 0 0 -60z"/>
<path d="M3980 4475 l0 -475 480 0 480 0 0 475 0 475 -480 0 -480 0 0 -475z
m830 0 l0 -355 -350 0 -350 0 0 355 0 355 350 0 350 0 0 -355z"/>
<path d="M4260 4481 l0 -199 52 -4 c28 -1 118 -1 200 1 l148 3 0 199 0 199
-200 0 -200 0 0 -199z"/>
<path d="M3290 4755 l0 -65 60 0 60 0 0 65 0 65 -60 0 -60 0 0 -65z"/>
<path d="M3700 4615 l0 -65 71 0 c61 0 70 2 65 16 -3 9 -6 38 -6 65 l0 49 -65
0 -65 0 0 -65z"/>
<path d="M2730 4470 l0 -70 -70 0 -70 0 0 -270 0 -270 65 0 65 0 0 205 0 205
75 0 75 0 0 -205 0 -205 70 0 70 0 0 -215 0 -215 -140 0 -140 0 0 -60 0 -60
70 0 70 0 0 -70 0 -70 70 0 70 0 0 -210 0 -210 59 0 c58 0 59 1 65 31 3 17 6
143 6 280 l0 249 75 0 75 0 0 -280 0 -280 135 0 135 0 0 -70 0 -70 70 0 70 0
0 -75 0 -75 -70 0 -70 0 0 -60 0 -60 70 0 70 0 0 -140 0 -140 274 0 273 0 7
-46 c3 -26 6 -87 6 -135 l0 -89 28 0 c15 0 44 -3 65 -6 l37 -7 0 -63 0 -64 70
0 70 0 0 64 c0 63 0 64 31 70 17 3 47 6 65 6 l34 0 0 114 c0 63 3 121 6 130 5
14 -4 16 -65 16 l-71 0 0 -70 0 -70 -70 0 -70 0 0 145 0 145 210 0 210 0 0
-70 0 -70 65 0 65 0 0 270 0 270 -65 0 -65 0 0 -70 0 -70 -70 0 -70 0 0 -65 0
-65 -94 0 c-51 0 -114 -3 -140 -6 l-46 -7 0 82 0 81 140 0 140 0 0 130 0 130
-70 0 -70 0 0 70 0 70 -70 0 -70 0 0 -70 0 -70 -140 0 -140 0 0 70 0 70 -135
0 -135 0 0 -70 0 -70 -70 0 -70 0 0 70 0 70 -70 0 -70 0 0 70 0 69 -72 3 -73
3 -3 202 -2 202 -68 3 -67 3 0 70 0 70 67 3 67 3 3 67 3 67 143 3 142 3 0
-141 0 -140 70 0 70 0 0 -65 0 -65 70 0 70 0 0 -75 0 -75 -39 0 c-21 0 -53 -3
-70 -6 -30 -6 -31 -7 -31 -65 l0 -59 140 0 140 0 0 -70 0 -70 135 0 135 0 0
65 0 65 -70 0 -70 0 0 135 0 135 -70 0 -70 0 0 215 0 215 140 0 140 0 0 65 0
65 -205 0 -205 0 0 -140 0 -140 -69 0 -68 0 -7 31 c-3 17 -6 80 -6 140 l0 108
-67 3 -68 3 -3 63 -3 62 -64 0 -65 0 0 -65 0 -65 -212 2 -213 3 -3 62 -3 62
-62 3 -62 3 -3 207 -2 207 -68 3 -67 3 -3 68 -3 67 -64 0 -65 0 0 -70z m1520
-2070 l0 -210 -205 0 -205 0 0 210 0 210 205 0 205 0 0 -210z"/>
<path d="M3980 2400 l0 -60 65 0 65 0 0 60 0 60 -65 0 -65 0 0 -60z"/>
<path d="M3150 4270 l0 -270 60 0 60 0 0 270 0 270 -60 0 -60 0 0 -270z"/>
<path d="M3560 4470 l0 -70 -71 0 c-69 0 -71 -1 -65 -22 3 -13 6 -39 6 -59 l0
-37 65 -7 65 -7 0 -64 0 -64 70 0 70 0 0 64 0 64 64 7 64 7 4 59 3 59 -67 0
-68 0 0 70 0 70 -70 0 -70 0 0 -70z"/>
<path d="M3420 4060 l0 -60 65 0 65 0 0 60 0 60 -65 0 -65 0 0 -60z"/>
<path d="M3700 4060 l0 -60 70 0 70 0 0 60 0 60 -70 0 -70 0 0 -60z"/>
<path d="M1490 3785 l0 -65 130 0 130 0 0 65 0 65 -130 0 -130 0 0 -65z"/>
<path d="M1900 3780 l0 -70 -69 0 -69 0 5 -127 c3 -71 6 -129 7 -129 0 -1 27
-5 59 -8 l57 -7 0 70 0 71 70 0 70 0 0 135 0 135 -65 0 -65 0 0 -70z"/>
<path d="M2320 3785 l0 -65 70 0 70 0 0 -69 0 -68 -72 -6 c-39 -3 -75 -4 -80
-1 -4 3 -8 34 -8 70 l0 64 -60 0 -60 0 0 -210 0 -211 -72 3 -73 3 -3 68 -3 67
-64 0 -65 0 0 -130 0 -130 70 0 70 0 0 -75 0 -75 -70 0 -70 0 0 -140 0 -141
-72 3 -73 3 -3 68 -3 67 -59 0 -60 0 0 -65 0 -65 -39 0 c-21 0 -53 -3 -70 -6
-31 -6 -31 -7 -31 -72 l0 -65 128 6 c70 4 191 7 270 7 l142 0 0 119 c0 66 3
126 6 135 5 12 21 16 75 16 l69 0 0 -140 0 -140 200 0 200 0 0 65 0 64 -137 3
-138 3 -3 73 -3 72 141 0 140 0 0 130 0 130 -60 0 -60 0 0 -65 0 -65 -74 0
c-41 0 -76 3 -78 8 -2 4 -2 37 0 75 l4 67 64 0 64 0 0 59 c0 66 -6 71 -87 71
l-43 0 0 48 c0 26 -3 57 -6 70 l-6 22 211 0 211 0 0 65 0 64 -67 3 -68 3 -3
138 -3 137 -129 0 -130 0 0 -65z"/>
<path d="M4530 3785 l0 -65 135 0 135 0 0 65 0 65 -135 0 -135 0 0 -65z"/>
<path d="M2730 3645 l0 -65 65 0 65 0 0 65 0 65 -65 0 -65 0 0 -65z"/>
<path d="M4810 3640 l0 -70 -70 0 -70 0 0 -65 0 -65 135 0 135 0 0 135 0 135
-65 0 -65 0 0 -70z"/>
<path d="M0 1850 l0 -1850 1820 0 1820 0 0 620 0 620 -1215 0 -1215 0 0 1230
0 1230 -605 0 -605 0 0 -1850z"/>
<path d="M1490 3505 l0 -65 60 0 60 0 0 65 0 65 -60 0 -60 0 0 -65z"/>
<path d="M3424 3513 c4 -31 9 -59 11 -62 3 -2 30 -6 60 -9 l55 -4 0 66 0 66
-66 0 -67 0 7 -57z"/>
<path d="M1630 3370 l0 -60 60 0 60 0 0 60 0 60 -60 0 -60 0 0 -60z"/>
<path d="M4250 3370 l0 -60 70 0 70 0 0 60 0 60 -70 0 -70 0 0 -60z"/>
<path d="M4390 3160 l0 -130 70 0 70 0 0 -70 0 -70 70 0 70 0 0 130 0 130 -70
0 -70 0 0 70 0 70 -70 0 -70 0 0 -130z"/>
<path d="M4670 3230 l0 -60 70 0 70 0 0 -140 0 -140 65 0 65 0 0 200 0 200
-135 0 -135 0 0 -60z"/>
<path d="M1760 3090 l0 -60 65 0 65 0 0 60 0 60 -65 0 -65 0 0 -60z"/>
<path d="M1490 2955 l0 -65 60 0 60 0 0 65 0 65 -60 0 -60 0 0 -65z"/>
<path d="M3700 2955 l0 -65 71 0 c61 0 70 2 65 16 -3 9 -6 38 -6 65 l0 49 -65
0 -65 0 0 -65z"/>
<path d="M2590 2815 l0 -65 135 0 135 0 0 65 0 65 -135 0 -135 0 0 -65z"/>
<path d="M4670 2815 l0 -65 65 0 65 0 0 65 0 65 -65 0 -65 0 0 -65z"/>
<path d="M3150 2600 l0 -141 -72 3 -73 3 -3 68 -3 67 -64 0 -65 0 0 -70 0 -71
-72 3 -73 3 -3 68 -3 67 -64 0 -65 0 0 -130 0 -130 70 0 70 0 0 -145 0 -145
-70 0 -70 0 0 -65 0 -65 140 0 140 0 0 -71 0 -72 31 7 c17 3 47 6 65 6 l34 0
0 49 c0 77 4 81 71 81 l59 0 0 65 0 64 -132 3 -133 3 -3 73 -3 72 71 0 70 0 0
70 0 70 75 0 75 0 0 -70 0 -70 60 0 60 0 0 270 0 270 -60 0 -60 0 0 -140z"/>
<path d="M5228 1953 l-3 -708 -697 -3 -698 -2 0 -405 0 -405 1120 0 1120 0 0
1115 0 1115 -420 0 -420 0 -2 -707z"/>
<path d="M3420 2540 l0 -60 65 0 65 0 0 60 0 60 -65 0 -65 0 0 -60z"/>
<path d="M1490 1985 l0 -475 475 0 475 0 0 475 0 475 -475 0 -475 0 0 -475z
m830 0 l0 -355 -352 2 -353 3 -3 353 -2 352 355 0 355 0 0 -355z"/>
<path d="M1770 1990 l0 -200 200 0 200 0 0 200 0 200 -200 0 -200 0 0 -200z"/>
<path d="M3420 2260 l0 -60 65 0 65 0 0 60 0 60 -65 0 -65 0 0 -60z"/>
<path d="M4810 1845 l0 -65 65 0 65 0 0 65 0 65 -65 0 -65 0 0 -65z"/>
<path d="M2590 1640 l0 -130 205 0 205 0 0 60 0 59 -67 3 -68 3 -3 68 -3 67
-134 0 -135 0 0 -130z"/>
<path d="M3420 1710 l0 -60 70 0 70 0 0 -70 0 -70 140 0 140 0 0 70 0 70 65 0
65 0 0 60 0 60 -275 0 -275 0 0 -60z"/>
<path d="M3150 1570 l0 -60 60 0 60 0 0 60 0 60 -60 0 -60 0 0 -60z"/>
<path d="M3980 1570 l0 -60 135 0 135 0 0 60 0 60 -135 0 -135 0 0 -60z"/>
<path d="M4670 1570 l0 -60 135 0 135 0 0 60 0 60 -135 0 -135 0 0 -60z"/>
</g>
</svg>
